{
	"asset":{
		"generator":"Khronos glTF Blender I/O v3.6.28",
		"version":"2.0"
	},
	"scene":0,
	"scenes":[
		{
			"name":"Scene",
			"nodes":[
				0
			]
		}
	],
	"nodes":[
		{
			"mesh":0,
			"name":"Circle.006",
			"rotation":[
				0,
				-0.7071065902709961,
				0,
				0.7071069478988647
			],
			"scale":[
				0.0431896336376667,
				0.0431896336376667,
				0.0431896336376667
			],
			"translation":[
				-1.0059735774993896,
				0.28409481048583984,
				0.6285481452941895
			]
		}
	],
	"meshes":[
		{
			"name":"Circle",
			"primitives":[
				{
					"attributes":{
						"POSITION":0,
						"NORMAL":1,
						"TEXCOORD_0":2
					},
					"indices":3
				}
			]
		}
	],
	"accessors":[
		{
			"bufferView":0,
			"componentType":5126,
			"count":65437,
			"max":[
				70.34378051757812,
				5.297538757324219,
				79.39474487304688
			],
			"min":[
				-32.40499496459961,
				-12.506446838378906,
				-77.64427185058594
			],
			"type":"VEC3"
		},
		{
			"bufferView":1,
			"componentType":5126,
			"count":65437,
			"type":"VEC3"
		},
		{
			"bufferView":2,
			"componentType":5126,
			"count":65437,
			"type":"VEC2"
		},
		{
			"bufferView":3,
			"componentType":5123,
			"count":204072,
			"type":"SCALAR"
		}
	],
	"bufferViews":[
		{
			"buffer":0,
			"byteLength":785244,
			"byteOffset":0,
			"target":34962
		},
		{
			"buffer":0,
			"byteLength":785244,
			"byteOffset":785244,
			"target":34962
		},
		{
			"buffer":0,
			"byteLength":523496,
			"byteOffset":1570488,
			"target":34962
		},
		{
			"buffer":0,
			"byteLength":408144,
			"byteOffset":2093984,
			"target":34963
		}
	],
	"buffers":[
		{
			"byteLength":2502128,
			"uri":"data:application/octet-stream;base64,"
		}
	]
}
