{
	"asset":{
		"generator":"Khronos glTF Blender I/O v3.6.28",
		"version":"2.0"
	},
	"scene":0,
	"scenes":[
		{
			"name":"Scene",
			"nodes":[
				0
			]
		}
	],
	"nodes":[
		{
			"mesh":0,
			"name":"Quad Sphere"
		}
	],
	"materials":[
		{
			"doubleSided":true,
			"name":"Material",
			"pbrMetallicRoughness":{
				"baseColorFactor":[
					0.800000011920929,
					0.800000011920929,
					0.800000011920929,
					1
				],
				"metallicFactor":0,
				"roughnessFactor":0.4000000059604645
			}
		}
	],
	"meshes":[
		{
			"name":"Quad Sphere",
			"primitives":[
				{
					"attributes":{
						"POSITION":0,
						"NORMAL":1
					},
					"indices":2,
					"material":0
				}
			]
		}
	],
	"accessors":[
		{
			"bufferView":0,
			"componentType":5126,
			"count":10352,
			"max":[
				1.2146879434585571,
				0.4492327570915222,
				1.7534950971603394
			],
			"min":[
				-1.214685320854187,
				-1.7115976810455322,
				-0.7014322280883789
			],
			"type":"VEC3"
		},
		{
			"bufferView":1,
			"componentType":5126,
			"count":10352,
			"type":"VEC3"
		},
		{
			"bufferView":2,
			"componentType":5123,
			"count":15528,
			"type":"SCALAR"
		}
	],
	"bufferViews":[
		{
			"buffer":0,
			"byteLength":124224,
			"byteOffset":0,
			"target":34962
		},
		{
			"buffer":0,
			"byteLength":124224,
			"byteOffset":124224,
			"target":34962
		},
		{
			"buffer":0,
			"byteLength":31056,
			"byteOffset":248448,
			"target":34963
		}
	],
	"buffers":[
		{
			"byteLength":279504,
			"uri":"data:application/octet-stream;base64,"
		}
	]
}
