{
	"asset":{
		"generator":"Khronos glTF Blender I/O v3.6.28",
		"version":"2.0"
	},
	"scene":0,
	"scenes":[
		{
			"name":"Scene",
			"nodes":[
				0
			]
		}
	],
	"nodes":[
		{
			"mesh":0,
			"name":"BezierCurve",
			"translation":[
				0.16684140264987946,
				0,
				-0.07299312204122543
			]
		}
	],
	"meshes":[
		{
			"name":"Mesh",
			"primitives":[
				{
					"attributes":{
						"POSITION":0,
						"NORMAL":1
					},
					"indices":2
				}
			]
		}
	],
	"accessors":[
		{
			"bufferView":0,
			"componentType":5126,
			"count":1622,
			"max":[
				2.281723976135254,
				-2.86102294921875e-06,
				2.169769048690796
			],
			"min":[
				-2.990817070007324,
				-0.6757800579071045,
				-0.882779598236084
			],
			"type":"VEC3"
		},
		{
			"bufferView":1,
			"componentType":5126,
			"count":1622,
			"type":"VEC3"
		},
		{
			"bufferView":2,
			"componentType":5123,
			"count":2508,
			"type":"SCALAR"
		}
	],
	"bufferViews":[
		{
			"buffer":0,
			"byteLength":19464,
			"byteOffset":0,
			"target":34962
		},
		{
			"buffer":0,
			"byteLength":19464,
			"byteOffset":19464,
			"target":34962
		},
		{
			"buffer":0,
			"byteLength":5016,
			"byteOffset":38928,
			"target":34963
		}
	],
	"buffers":[
		{
			"byteLength":43944,
			"uri":"data:application/octet-stream;base64,"
		}
	]
}
